<svg xmlns="http://www.w3.org/2000/svg" viewBox="0 0 24 24" width="1em" height="1em" fill="currentColor"
    class="text-purple dark:text-dark-purple h-5 w-5">
    <path d="M10 15.464v-3.927a.8.8 0 011.259-.656l2.805 1.964a.8.8 0 010 1.31l-2.805 1.964A.8.8 0 0110 15.464z"></path>
    <path
        d="M7 4a1 1 0 00-1 1v14a1 1 0 001 1h10a1 1 0 001-1V9h-3a2 2 0 01-2-2V4H7zm8 .6V7h1.92L15 4.6zM4 5a3 3 0 013-3h7.039a3 3 0 012.342 1.126l2.962 3.701A3 3 0 0120 8.702V19a3 3 0 01-3 3H7a3 3 0 01-3-3V5z">
    </path>
</svg>